<?xml version="1.0" encoding="UTF-8"?>
<svg width="120" height="120" viewBox="0 0 120 120" xmlns="http://www.w3.org/2000/svg">
    <defs>
        <linearGradient id="logoGradient" x1="0%" y1="0%" x2="100%" y2="100%">
            <stop offset="0%" style="stop-color:#FFD700"/>
            <stop offset="100%" style="stop-color:#FFA500"/>
        </linearGradient>
    </defs>
    <g fill="url(#logoGradient)">
        <path d="M60 10C32.386 10 10 32.386 10 60s22.386 50 50 50 50-22.386 50-50S87.614 10 60 10zm0 90c-27.614 0-50-22.386-50-50s22.386-50 50-50 50 22.386 50 50-22.386 50-50 50z"/>
        <path d="M60 30c-16.569 0-30 13.431-30 30 0 16.569 13.431 30 30 30 16.569 0 30-13.431 30-30 0-16.569-13.431-30-30-30zm0 50c-11.046 0-20-8.954-20-20s8.954-20 20-20 20 8.954 20 20-8.954 20-20 20z"/>
        <circle cx="60" cy="60" r="15"/>
    </g>
</svg>
